<?xml version="1.0" encoding="UTF-8" standalone="no"?>
<svg
   xmlns:dc="http://purl.org/dc/elements/1.1/"
   xmlns:cc="http://creativecommons.org/ns#"
   xmlns:rdf="http://www.w3.org/1999/02/22-rdf-syntax-ns#"
   xmlns:svg="http://www.w3.org/2000/svg"
   xmlns="http://www.w3.org/2000/svg"
   xmlns:sodipodi="http://sodipodi.sourceforge.net/DTD/sodipodi-0.dtd"
   xmlns:inkscape="http://www.inkscape.org/namespaces/inkscape"
   aria-hidden="true"
   focusable="false"
   data-prefix="fas"
   data-icon="check-double"
   class="svg-inline--fa fa-check-double fa-w-16"
   role="img"
   viewBox="0 0 512 512"
   version="1.1"
   id="svg3763"
   sodipodi:docname="fa-double-check.svg"
   inkscape:version="0.92.4 (unknown)">
  <metadata
     id="metadata3769">
    <rdf:RDF>
      <cc:Work
         rdf:about="">
        <dc:format>image/svg+xml</dc:format>
        <dc:type
           rdf:resource="http://purl.org/dc/dcmitype/StillImage" />
        <dc:title></dc:title>
      </cc:Work>
    </rdf:RDF>
  </metadata>
  <defs
     id="defs3767" />
  <sodipodi:namedview
     pagecolor="#ffffff"
     bordercolor="#666666"
     borderopacity="1"
     objecttolerance="10"
     gridtolerance="10"
     guidetolerance="10"
     inkscape:pageopacity="0"
     inkscape:pageshadow="2"
     inkscape:window-width="1920"
     inkscape:window-height="987"
     id="namedview3765"
     showgrid="false"
     inkscape:zoom="1.5585938"
     inkscape:cx="256"
     inkscape:cy="256"
     inkscape:window-x="0"
     inkscape:window-y="54"
     inkscape:window-maximized="1"
     inkscape:current-layer="svg3763" />
  <path
     style="fill:#00ff00;stroke:#00ff00;stroke-width:0.64160401"
     d="m 186.3218,284.1919 c -2.47327,-0.89234 -11.21212,-9.40733 -60.95238,-59.39092 -31.935836,-32.09207 -58.628302,-59.39229 -59.316587,-60.66715 -0.688285,-1.27486 -1.368771,-3.94019 -1.512191,-5.92296 -0.503685,-6.96337 -0.229456,-7.3113 27.657255,-35.09076 26.919703,-26.816169 26.703613,-26.642609 33.171523,-26.642609 6.53332,0 5.93578,-0.493182 37.38094,30.852779 l 29.36087,29.26826 76.82459,-76.797931 c 60.01949,-59.99867 77.45615,-77.0811589 79.7118,-78.0926992 1.58797,-0.71212106 4.15297,-1.30110649 5.7,-1.30885649 6.66237,-0.0333758 6.17795,-0.41979731 33.29714,26.56099469 16.46633,16.382291 25.64065,25.978286 26.46617,27.682622 1.74439,3.601398 1.70854,9.699427 -0.0782,13.296676 -1.7514,3.526147 -211.46981,213.589054 -215.15322,215.506634 -3.35462,1.74643 -8.87569,2.07437 -12.55773,0.74592 z"
     id="path3771"
     inkscape:connector-curvature="0" />
  <path
     style="fill:#00ff00;stroke:#00ff00;stroke-width:0.64160401"
     d="M 444.19922 128.74219 C 443.31303 128.75386 442.37841 128.94899 441.1875 129.50195 C 440.28798 129.80008 439.54482 130.28707 438.36914 131.10352 C 437.13098 131.96335 435.58834 133.18648 433.30273 135.20117 C 420.37433 146.30951 391.01784 175.97376 313.03516 253.89844 L 293.05078 273.86914 C 236.79161 330.02736 192.08683 374.43945 191.78711 374.43945 C 191.54186 374.43945 176.90884 360.05801 156.48242 339.77539 L 134.66797 317.95117 C 98.454947 281.72181 84.051871 267.23962 76.654297 261.24805 C 76.645169 261.23998 76.639929 261.23652 76.630859 261.22852 C 75.771041 260.46981 75.170422 259.97652 74.837891 259.75781 C 74.556242 259.57257 74.278078 259.42116 73.998047 259.25195 C 71.609196 257.62684 70.037592 257.11756 68.339844 256.88477 C 65.718157 256.29023 62.945082 256.31379 59.738281 256.91016 C 57.359894 257.35247 55.65311 257.72682 53.642578 258.81641 C 52.690008 259.24229 51.777672 259.70618 50.964844 260.23047 C 48.563076 261.77966 28.993179 281.14155 15.755859 294.71484 C 11.08229 299.44477 7.9337869 302.72136 6.0507812 304.86133 C 6.0479014 304.86448 6.0419379 304.8699 6.0390625 304.87305 C 4.7099813 306.32603 3.8541784 307.32315 3.625 307.71289 C 3.5052979 307.91646 3.3919815 308.15471 3.2753906 308.37695 C 2.7705179 309.17571 2.4461311 309.85837 2.1542969 310.59961 C 1.5605377 312.10772 1.1790758 313.4249 0.94140625 314.9082 C 0.51766181 316.71979 0.25585938 318.50226 0.25585938 319.96289 C 0.25585938 321.20429 0.4426538 322.59102 0.74804688 324.01562 C 0.93344551 325.64623 1.3572635 326.89987 2.2265625 328.8125 C 2.9870154 330.68213 3.9178568 332.43323 4.953125 333.82812 C 5.3498707 334.36269 10.558139 339.6872 17.619141 346.85156 C 27.845942 357.34085 45.344255 374.90266 77.123047 406.73438 C 114.72754 444.40148 139.59428 469.16856 155.71289 484.9668 C 164.74275 493.85312 171.07073 499.95541 175.13281 503.63086 C 177.94458 506.21464 179.78489 507.78983 180.77734 508.47266 C 181.00665 508.63042 181.27313 508.79128 181.5293 508.95117 C 181.70852 509.07539 181.85131 509.15154 182.01758 509.25977 C 183.01844 509.91123 183.82941 510.31712 184.56641 510.58398 C 185.00164 510.77771 185.4034 510.94002 185.72656 511.03906 C 186.17342 511.17601 186.74741 511.2709 187.38086 511.3457 C 190.36932 511.88638 194.64512 511.58121 198.22852 510.65625 C 199.16819 510.44488 200.02701 510.20826 200.65234 509.93164 C 200.72643 509.89887 200.85108 509.81171 200.93945 509.76367 C 201.1011 509.69755 201.28316 509.64153 201.4375 509.57227 C 202.81212 508.95537 205.48749 506.7659 215.92578 496.63867 C 216.78356 495.82306 217.50384 495.15882 218.42969 494.26953 C 230.16755 482.99515 322.52938 390.6693 399.30469 313.68555 C 444.26199 268.66581 474.43707 238.37634 489.31445 223.21289 C 497.84299 214.58949 503.51919 208.80846 504.39648 207.82031 C 505.56762 206.50119 506.48933 205.42065 507.25391 204.46484 C 508.72181 202.78323 509.41487 201.84705 509.62109 201.34961 C 509.89185 200.69651 510.12207 200.03362 510.33398 199.36719 C 510.46564 199.00614 510.58739 198.6375 510.70117 198.24609 C 511.53879 195.3648 511.73894 192.32504 511.35742 189.27539 C 511.30729 188.81084 511.24074 188.349 511.16406 187.88867 C 510.54811 184.191 509.08691 180.64766 506.80078 177.58594 C 506.28726 176.89821 504.442 174.91055 502.12695 172.47266 C 501.79759 172.12197 501.36256 171.67406 500.99805 171.29102 C 498.07118 168.23357 494.44841 164.52097 490.20703 160.25195 C 489.8532 159.89439 489.68873 159.72161 489.32031 159.34961 C 481.02708 150.97591 474.9136 144.94126 470.21094 140.49805 C 465.92582 136.39454 462.8295 133.64104 460.40625 131.97266 C 459.51492 131.32762 458.70535 130.78621 458.05078 130.44531 C 456.82604 129.80748 455.74395 129.46159 453.96484 129.27344 C 452.36024 129.03882 450.63055 129.02734 448.41797 129.02734 C 446.62981 129.02734 445.44639 128.72576 444.19922 128.74219 z "
     id="path3773" />
</svg>
